<?xml version="1.0" encoding="utf-8"?>
<!-- Generator: Adobe Illustrator 19.0.0, SVG Export Plug-In . SVG Version: 6.00 Build 0)  -->
<svg version="1.1" id="Layer_1" xmlns="http://www.w3.org/2000/svg" xmlns:xlink="http://www.w3.org/1999/xlink" x="0px" y="0px"
	 viewBox="0 0 244 340" style="enable-background:new 0 0 244 340;" xml:space="preserve">
<style type="text/css">
	.st0{fill:#507ABD;}
	.st1{fill:#FFFFFF;}
	.st2{fill:none;stroke:#FFFFFF;stroke-width:2;stroke-miterlimit:10;}
</style>
<rect id="XMLID_1_" class="st0" width="244" height="340"/>
<g id="XMLID_3_">
	<path id="XMLID_4_" class="st1" d="M41.3,192c-1.9,0-3.4-0.6-4.5-1.8c-1.1-1.2-1.7-2.8-1.6-4.7c0.1-1.3,0.4-2.8,1-4.5
		c0.6-1.7,1.4-3.6,2.5-5.6c1-2,2.2-4,3.6-6.2c1.4-2.1,2.8-4.2,4.4-6.3c1.6-2,3.2-4,5-5.8c1.7-1.8,3.5-3.4,5.2-4.8
		c1.7-1.4,3.5-2.5,5.1-3.3c1.7-0.8,3.3-1.2,4.8-1.2c0.9,0,1.6,0.3,2.1,0.9c0.5,0.6,0.7,1.4,0.6,2.2c0,0.3-0.1,0.7-0.4,1.4
		c-0.3,0.6-0.6,1.4-1,2.2c-0.4,0.8-0.9,1.7-1.4,2.6c-0.5,0.9-1,1.7-1.5,2.5c-0.5,0.8-0.9,1.4-1.3,2c-0.4,0.6-0.7,0.9-0.9,1.1
		c-0.3-0.1-0.6-0.3-0.9-0.6c-0.3-0.3-0.5-0.6-0.5-0.9c0,0,0.2-0.3,0.5-0.8c0.3-0.5,0.7-1.1,1.2-1.8c0.5-0.7,1-1.5,1.5-2.4
		c0.6-0.9,1.1-1.7,1.6-2.5c0.5-0.8,0.9-1.5,1.2-2.1c0.3-0.6,0.5-1,0.5-1.2c-0.1-0.1-0.2-0.1-0.3-0.1c-0.1,0-0.2,0-0.3,0
		c-0.8,0-1.7,0.1-2.5,0.4c-0.9,0.3-1.7,0.7-2.6,1.2c-0.8,0.5-1.6,1-2.4,1.6c-0.8,0.6-1.5,1.1-2.1,1.7c-0.6,0.6-1.2,1-1.7,1.5
		c-0.5,0.4-0.8,0.8-1,0.9c-1.3,1.3-2.6,2.7-4,4.3c-1.4,1.6-2.7,3.2-3.9,4.9c-1.3,1.7-2.5,3.5-3.6,5.3c-1.1,1.8-2.2,3.6-3.1,5.3
		c-0.9,1.7-1.6,3.4-2.1,4.9c-0.5,1.6-0.9,3-0.9,4.3c-0.1,1.2,0.1,2,0.6,2.5c0.4,0.5,1.4,0.8,2.7,0.8c1.5,0,3-0.3,4.4-0.8
		c1.5-0.5,2.9-1.1,4.4-1.9c1.4-0.8,2.9-1.6,4.3-2.5c1.4-0.9,2.8-1.8,4.2-2.6c0.1,0,0.3,0.1,0.5,0.2c0.2,0.1,0.4,0.2,0.6,0.3
		c0.2,0.1,0.4,0.2,0.5,0.4c0.1,0.1,0.2,0.3,0.2,0.5s-0.1,0.4-0.4,0.5c-0.3,0.2-0.4,0.3-0.6,0.3c-1.1,0.9-2.4,1.7-3.9,2.6
		c-1.5,0.9-3.1,1.7-4.7,2.4c-1.6,0.7-3.2,1.3-4.8,1.8C43.9,191.8,42.5,192,41.3,192z"/>
	<path id="XMLID_6_" class="st1" d="M63.2,180.6c0-1.3,0.4-2.7,1.2-4.2c0.8-1.4,1.8-2.8,3-4c1.2-1.2,2.5-2.2,4-3
		c1.4-0.8,2.8-1.2,4.2-1.2c0.9,0,1.6,0.3,2,1c0.4,0.7,0.5,1.4,0.5,2.1c0,0.9-0.4,1.8-1.2,2.6c-0.8,0.9-1.8,1.6-3,2.3
		c-1.2,0.7-2.4,1.2-3.6,1.6c-1.3,0.4-2.3,0.6-3.2,0.6c-0.2,0-0.3,0-0.5,0c-0.2,0-0.3,0-0.4-0.1c-0.1,0.2-0.2,0.4-0.3,0.7
		c-0.1,0.3-0.2,0.5-0.3,0.8c-0.1,0.3-0.1,0.6-0.2,0.8c0,0.3-0.1,0.4-0.1,0.6c0,1,0.6,1.6,1.7,1.6c0.9,0,2-0.2,3.3-0.7
		c1.3-0.5,2.6-1.1,4-1.8c1.4-0.7,2.8-1.5,4.2-2.3c1.4-0.8,2.6-1.6,3.7-2.3c1.1-0.7,2-1.3,2.7-1.8c0.7-0.5,1.1-0.7,1.2-0.7
		c0.3,0,0.7,0.1,1.1,0.4c0.4,0.3,0.6,0.6,0.6,1c0,0.2-0.4,0.6-1.2,1.2c-0.8,0.6-1.8,1.3-3,2c-1.2,0.8-2.6,1.5-4.1,2.4
		c-1.5,0.8-3,1.6-4.5,2.2c-1.5,0.7-2.9,1.2-4.1,1.7c-1.3,0.4-2.3,0.7-3,0.7c-0.5,0-1-0.1-1.6-0.3c-0.6-0.2-1-0.5-1.5-0.9
		c-0.4-0.4-0.8-0.8-1.1-1.4C63.4,181.8,63.2,181.2,63.2,180.6z M67.2,176.4h0.3c0.7,0,1.4-0.1,2.2-0.4c0.8-0.3,1.5-0.7,2.2-1.1
		c0.7-0.4,1.4-0.9,2-1.4c0.6-0.5,1.1-1,1.5-1.4c0.4-0.4,0.6-0.8,0.8-1.1c0.1-0.3,0-0.4-0.3-0.4c-0.8,0-1.6,0.2-2.5,0.5
		c-0.8,0.3-1.6,0.8-2.4,1.3c-0.8,0.5-1.4,1.1-2.1,1.8c-0.6,0.7-1.2,1.3-1.6,2L67.2,176.4z"/>
	<path id="XMLID_9_" class="st1" d="M81.1,184.2c-0.2-0.1-0.4-0.2-0.7-0.4c-0.3-0.2-0.4-0.5-0.4-0.8c0-0.3,0.2-0.7,0.5-1.4
		c0.4-0.7,0.8-1.5,1.4-2.4c0.6-0.9,1.2-1.8,1.8-2.8c0.7-1,1.3-1.9,2-2.7c0.6-0.8,1.2-1.6,1.7-2.2c0.5-0.6,0.9-0.9,1.1-1
		c0.3,0,0.6,0.2,0.9,0.5c0.3,0.4,0.4,0.7,0.4,1c-0.6,0.9-1.2,1.8-1.8,2.5c-0.6,0.7-0.8,1.1-0.8,1.3c0,0,0.3-0.2,0.8-0.6
		c0.5-0.4,1.1-0.9,1.8-1.5c0.7-0.6,1.5-1.2,2.4-1.9c0.9-0.7,1.7-1.3,2.5-1.9c0.8-0.6,1.5-1.1,2.1-1.5c0.6-0.4,1-0.6,1.3-0.6
		c0.3,0,0.7,0.2,1,0.6c0.3,0.4,0.5,0.8,0.5,1.2c0,0.2-0.1,0.5-0.2,0.9c-0.1,0.4-0.3,0.8-0.5,1.3c-0.2,0.4-0.4,0.9-0.6,1.3
		c-0.2,0.4-0.3,0.8-0.5,1.1c0.2,0.1,0.4,0.4,0.6,0.7c0.2,0.4,0.4,0.6,0.4,0.8c0,0.4-0.2,0.6-0.6,0.6c-0.8,0-1.3-0.3-1.7-0.9
		c-0.4-0.6-0.5-1.3-0.5-1.9c0-0.2,0-0.3,0-0.4c0-0.1,0-0.3,0.1-0.5c-1.3,0.8-2.6,1.5-3.8,2.2c-1.2,0.7-2.3,1.5-3.4,2.3
		c-1.1,0.8-2.1,1.7-3.1,2.8c-1,1-2,2.2-3,3.6c-0.1,0.2-0.3,0.3-0.5,0.5c-0.2,0.1-0.4,0.3-0.6,0.4L81.1,184.2z"/>
	<path id="XMLID_11_" class="st1" d="M100.5,185.5c-0.3,0-0.7-0.1-1.1-0.2c-0.4-0.1-0.8-0.3-1.1-0.5c-0.3-0.2-0.6-0.5-0.8-0.9
		c-0.2-0.4-0.3-0.8-0.3-1.3c0-0.5,0.2-1,0.5-1.7c0.3-0.7,0.7-1.4,1.2-2.2c0.5-0.8,1-1.6,1.6-2.4c0.6-0.8,1.2-1.6,1.8-2.4
		c0.6-0.7,1.2-1.4,1.7-2c0.5-0.6,0.9-1,1.3-1.3h0.1c0.3,0,0.6,0.1,1,0.4c0.4,0.3,0.5,0.6,0.5,1c-0.9,1.2-1.6,2.2-2.3,3
		c-0.6,0.9-1.3,1.8-2,2.8c-0.7,1-1.3,1.9-1.8,2.8c-0.5,0.8-0.9,1.6-1.1,2.1c-0.2,0.6-0.2,0.8,0.1,0.8c1.2,0,2.5-0.3,3.8-1
		c1.3-0.6,2.7-1.5,4.1-2.5c1.4-1,2.8-2.1,4.2-3.3c1.4-1.2,2.8-2.4,4.1-3.6c0,0,0.1,0,0.2,0c0.3,0,0.5,0.2,0.8,0.5
		c0.3,0.3,0.5,0.6,0.5,1c0,0.3-0.3,0.7-0.9,1.4c-0.6,0.6-1.4,1.3-2.4,2.1c-1,0.8-2.1,1.6-3.4,2.5c-1.3,0.9-2.5,1.6-3.8,2.3
		c-1.2,0.7-2.4,1.3-3.5,1.7C102.2,185.3,101.2,185.5,100.5,185.5z M107.9,168.8c-0.3,0-0.5-0.1-0.7-0.4c-0.2-0.3-0.3-0.6-0.1-0.9
		c0.1-0.2,0.3-0.5,0.7-1c0.3-0.4,0.7-0.9,1-1.3c0.4-0.4,0.7-0.8,1.1-1.2c0.3-0.4,0.6-0.6,0.8-0.8c0.3,0,0.6,0.1,0.9,0.4
		c0.3,0.3,0.5,0.6,0.5,0.9c0,0.2-0.1,0.5-0.4,0.9c-0.3,0.4-0.7,0.9-1.1,1.3c-0.4,0.5-0.8,0.9-1.3,1.3c-0.4,0.4-0.7,0.6-0.9,0.7
		H107.9z"/>
	<path id="XMLID_14_" class="st1" d="M108,189.4c-0.1-1.7,0.3-3.5,1.2-5.5c0.9-2,2-3.9,3.3-5.9c1.3-2,2.6-3.8,4-5.6
		c1.4-1.8,2.6-3.3,3.6-4.6l0.6-0.7h-5.9c-0.5,0-1.1,0-1.6,0c-0.5,0-1.1,0-1.6,0c-0.2-0.2-0.3-0.4-0.5-0.6c-0.2-0.2-0.2-0.5-0.2-0.8
		c0-0.4,0.1-0.7,0.4-0.9c0.7,0,1.5,0,2.2,0c0.7,0,1.5,0,2.2,0c0.7,0,1.5,0,2.2,0c0.7,0,1.5,0,2.2,0c0.5-0.1,1-0.1,1.5-0.1
		c0.5,0,0.9,0,1.4-0.1c0.7-0.7,1.3-1.4,2.1-2.3c0.7-0.9,1.4-1.7,2.1-2.5c0.7-0.8,1.3-1.6,1.8-2.2c0.6-0.7,1-1.2,1.4-1.4h0.2
		c0.3,0,0.5,0.2,0.7,0.5c0.2,0.3,0.4,0.6,0.4,0.9c0,0.3-0.1,0.8-0.5,1.4c-0.4,0.6-0.8,1.2-1.4,1.9c-0.5,0.7-1.1,1.3-1.7,2
		c-0.6,0.7-1.1,1.2-1.5,1.7h0.7c0.5,0,1,0,1.6,0.1s1,0.1,1.5,0.3c0.4,0.1,0.8,0.3,1.1,0.6c0.3,0.3,0.4,0.6,0.4,1.1
		c0,0.1,0,0.3,0,0.5c0,0.2-0.1,0.3-0.3,0.3h-0.5c-0.3-0.2-0.7-0.3-1.4-0.3c-0.7-0.1-1.4-0.1-2.1-0.1c-0.5,0-1,0-1.5,0
		c-0.5,0-0.8,0-1.1,0h-0.5l-0.7,0.9c-0.6,0.6-1.3,1.4-2.2,2.5c-0.9,1.1-1.8,2.3-2.8,3.6c-1,1.3-2,2.8-3,4.3c-1,1.5-1.9,3-2.6,4.4
		c-0.8,1.4-1.4,2.8-1.9,4.1c-0.5,1.3-0.7,2.4-0.7,3.3c0,0.2,0.1,0.4,0.2,0.7c0.1,0.3,0.1,0.5-0.1,0.7c-0.1,0.1-0.2,0.1-0.3,0.1
		c-0.5,0-1-0.2-1.5-0.6C108.3,190.5,108,190,108,189.4z"/>
	<path id="XMLID_16_" class="st1" d="M121.7,182.1c0-0.8,0.2-1.7,0.6-2.7c0.4-1,0.9-2,1.5-3c0.6-1,1.4-2,2.2-3
		c0.8-1,1.7-1.8,2.6-2.6c0.9-0.8,1.8-1.4,2.7-1.8c0.9-0.5,1.8-0.7,2.6-0.7c0.8,0,1.4,0.1,1.9,0.4c0.5,0.3,1,0.7,1.5,1.2
		c0.1,0,0.2-0.1,0.4-0.2c0.2-0.1,0.4-0.2,0.6-0.3c0.2-0.1,0.4-0.2,0.6-0.3c0.2-0.1,0.3-0.1,0.4-0.1c0.3,0,0.7,0.2,1,0.5
		c0.3,0.3,0.4,0.7,0.4,1v0.1c-0.6,0.6-1.2,1.3-1.9,2.1c-0.7,0.8-1.4,1.7-2.1,2.6c-0.7,0.9-1.3,1.8-1.9,2.6c-0.6,0.9-1.1,1.7-1.5,2.4
		c-0.4,0.7-0.7,1.3-0.8,1.7c-0.1,0.4-0.1,0.6,0.2,0.6c0.3,0,0.7-0.1,1.3-0.4c0.6-0.3,1.3-0.7,2-1.1c0.8-0.5,1.6-1,2.5-1.5
		c0.9-0.6,1.7-1.1,2.5-1.7c0.8-0.6,1.6-1.1,2.2-1.5c0.6-0.5,1.1-0.9,1.5-1.2c0.1-0.1,0.2-0.2,0.4-0.4c0.2-0.2,0.4-0.4,0.7-0.6
		c0.2-0.2,0.4-0.4,0.6-0.6c0.2-0.2,0.3-0.3,0.4-0.3c0.3,0,0.7,0.1,1,0.4c0.3,0.3,0.5,0.6,0.5,0.9c0,0.4-0.3,1-1,1.7
		c-0.7,0.7-1.5,1.4-2.6,2.2c-1,0.8-2.2,1.6-3.4,2.4c-1.3,0.8-2.5,1.5-3.7,2.1c-1.2,0.6-2.3,1.2-3.3,1.6c-1,0.4-1.7,0.6-2.1,0.6
		c-0.5,0-1-0.3-1.4-0.8c-0.4-0.5-0.6-1.1-0.6-1.6c0-0.3,0.1-0.8,0.2-1.3c0.2-0.6,0.4-1,0.6-1.5c-0.5,0.3-1,0.7-1.7,1.3
		c-0.6,0.5-1.3,1-2,1.5c-0.7,0.5-1.3,0.9-1.9,1.3c-0.6,0.3-1.1,0.5-1.4,0.5c-0.3,0-0.6-0.1-0.8-0.2c-0.3-0.1-0.5-0.3-0.7-0.6
		c-0.2-0.2-0.4-0.5-0.5-0.8C121.7,182.6,121.7,182.4,121.7,182.1z M124.2,181.7c0.2,0,0.6-0.2,1.3-0.7c0.6-0.4,1.4-1,2.2-1.7
		c0.8-0.7,1.7-1.4,2.6-2.2c0.9-0.8,1.8-1.6,2.6-2.4c0.8-0.8,1.4-1.5,1.9-2.2s0.8-1.2,0.8-1.5c0-0.3-0.1-0.4-0.4-0.5
		c-0.3,0-0.5-0.1-0.6-0.1c-0.5,0-1.2,0.2-1.9,0.6c-0.7,0.4-1.5,0.9-2.2,1.6c-0.8,0.7-1.5,1.4-2.2,2.2c-0.7,0.8-1.4,1.7-2,2.5
		c-0.6,0.8-1.1,1.6-1.4,2.4C124.4,180.6,124.2,181.2,124.2,181.7z"/>
	<path id="XMLID_19_" class="st1" d="M139.6,187.4c-0.3,0-0.7-0.1-1.1-0.2c-0.4-0.2-0.6-0.5-0.6-0.9c0.5-0.8,1.2-1.8,2.1-3.1
		c0.9-1.3,1.8-2.7,2.9-4.3c1-1.6,2.1-3.3,3.3-5.1c1.2-1.8,2.4-3.6,3.6-5.5c1.2-1.8,2.4-3.6,3.6-5.3c1.2-1.7,2.3-3.3,3.3-4.7
		c1-1.4,1.9-2.6,2.7-3.6c0.8-1,1.5-1.7,1.9-2.1c0.3,0.1,0.6,0.2,0.9,0.5c0.3,0.3,0.4,0.6,0.4,0.9c0,0.2-0.3,0.8-0.9,1.8
		c-0.6,1-1.3,2.2-2.2,3.6c-0.9,1.4-1.9,2.9-2.9,4.5c-1.1,1.6-2.1,3.1-3.1,4.5c-1,1.4-1.9,2.7-2.6,3.8c-0.8,1.1-1.3,1.8-1.6,2.1
		c0.6-0.4,1.3-0.8,2.1-1.3c0.8-0.5,1.7-1,2.6-1.5c0.9-0.5,1.8-0.9,2.6-1.2c0.9-0.3,1.6-0.5,2.3-0.5c0.4,0,0.7,0.2,0.9,0.5
		c0.2,0.3,0.3,0.7,0.3,1c0,0.3-0.2,0.5-0.4,0.6c-0.3,0.2-0.5,0.3-0.7,0.3c-2.3,1-4.6,2.1-6.8,3.3c-2.2,1.2-4.2,2.7-6,4.6
		c0.3,0.4,0.7,0.7,0.9,0.9c0.3,0.2,0.6,0.4,0.9,0.6c0.3,0.1,0.6,0.2,1,0.3c0.4,0.1,0.8,0.1,1.3,0.1c1.4,0,2.8-0.3,4.3-0.9
		c1.5-0.6,3-1.4,4.5-2.2c1.5-0.9,2.9-1.8,4.3-2.8c1.4-1,2.6-1.9,3.7-2.6c0.4,0,0.8,0.1,1.1,0.3c0.3,0.2,0.5,0.5,0.5,1
		c-0.4,0.7-1.1,1.5-2,2.2c-0.9,0.8-1.8,1.5-2.9,2.2c-1.1,0.7-2.3,1.4-3.5,2c-1.2,0.6-2.5,1.2-3.7,1.7c-1.2,0.5-2.4,0.8-3.5,1.1
		c-1.1,0.3-2.1,0.4-3,0.4c-1.3,0-2.4-0.3-3.3-0.8c-0.9-0.5-1.7-1.3-2.4-2.4c-0.2,0.3-0.5,0.7-0.9,1.4c-0.4,0.7-0.9,1.4-1.4,2.1
		c-0.5,0.7-1,1.4-1.5,2C140.3,187.1,139.9,187.4,139.6,187.4z"/>
	<path id="XMLID_21_" class="st1" d="M162.2,182.1c0-0.8,0.2-1.7,0.6-2.7c0.4-1,0.9-2,1.5-3c0.6-1,1.4-2,2.2-3
		c0.8-1,1.7-1.8,2.6-2.6c0.9-0.8,1.8-1.4,2.7-1.8c0.9-0.5,1.8-0.7,2.6-0.7c0.8,0,1.4,0.1,1.9,0.4c0.5,0.3,1,0.7,1.5,1.2
		c0.1,0,0.2-0.1,0.4-0.2c0.2-0.1,0.4-0.2,0.6-0.3c0.2-0.1,0.4-0.2,0.6-0.3c0.2-0.1,0.3-0.1,0.4-0.1c0.3,0,0.7,0.2,1,0.5
		c0.3,0.3,0.4,0.7,0.4,1v0.1c-0.6,0.6-1.2,1.3-1.9,2.1c-0.7,0.8-1.4,1.7-2.1,2.6c-0.7,0.9-1.3,1.8-1.9,2.6c-0.6,0.9-1.1,1.7-1.5,2.4
		c-0.4,0.7-0.7,1.3-0.8,1.7c-0.1,0.4-0.1,0.6,0.2,0.6c0.3,0,0.7-0.1,1.3-0.4c0.6-0.3,1.3-0.7,2-1.1c0.8-0.5,1.6-1,2.5-1.5
		c0.9-0.6,1.7-1.1,2.5-1.7c0.8-0.6,1.6-1.1,2.2-1.5c0.6-0.5,1.1-0.9,1.5-1.2c0.1-0.1,0.2-0.2,0.4-0.4c0.2-0.2,0.4-0.4,0.7-0.6
		c0.2-0.2,0.4-0.4,0.6-0.6c0.2-0.2,0.3-0.3,0.4-0.3c0.3,0,0.7,0.1,1,0.4c0.3,0.3,0.5,0.6,0.5,0.9c0,0.4-0.3,1-1,1.7
		c-0.7,0.7-1.5,1.4-2.6,2.2c-1,0.8-2.2,1.6-3.4,2.4c-1.3,0.8-2.5,1.5-3.7,2.1c-1.2,0.6-2.3,1.2-3.3,1.6c-1,0.4-1.7,0.6-2.1,0.6
		c-0.5,0-1-0.3-1.4-0.8c-0.4-0.5-0.6-1.1-0.6-1.6c0-0.3,0.1-0.8,0.2-1.3c0.2-0.6,0.4-1,0.6-1.5c-0.5,0.3-1,0.7-1.7,1.3
		c-0.6,0.5-1.3,1-2,1.5c-0.7,0.5-1.3,0.9-1.9,1.3s-1.1,0.5-1.4,0.5c-0.3,0-0.6-0.1-0.8-0.2c-0.3-0.1-0.5-0.3-0.7-0.6
		c-0.2-0.2-0.4-0.5-0.5-0.8C162.2,182.6,162.2,182.4,162.2,182.1z M164.8,181.7c0.2,0,0.6-0.2,1.3-0.7c0.6-0.4,1.4-1,2.2-1.7
		c0.8-0.7,1.7-1.4,2.6-2.2c0.9-0.8,1.8-1.6,2.5-2.4c0.8-0.8,1.4-1.5,1.9-2.2s0.8-1.2,0.8-1.5c0-0.3-0.1-0.4-0.4-0.5
		c-0.3,0-0.5-0.1-0.6-0.1c-0.5,0-1.2,0.2-1.9,0.6c-0.7,0.4-1.5,0.9-2.2,1.6s-1.5,1.4-2.2,2.2c-0.7,0.8-1.4,1.7-2,2.5
		c-0.6,0.8-1.1,1.6-1.4,2.4C165,180.6,164.8,181.2,164.8,181.7z"/>
	<path id="XMLID_24_" class="st1" d="M180.4,184c0-0.2,0.2-0.7,0.7-1.6c0.5-0.8,1-1.8,1.7-2.9c0.7-1.1,1.5-2.3,2.3-3.5
		c0.8-1.2,1.6-2.4,2.4-3.4c0.8-1,1.4-1.9,2-2.6c0.6-0.7,0.9-1,1.1-1c0.3,0,0.6,0.2,0.9,0.5c0.3,0.4,0.5,0.7,0.5,1
		c0,0.1-0.2,0.4-0.6,1c-0.4,0.6-0.8,1.2-1.4,2c-0.5,0.7-1,1.4-1.5,2c-0.5,0.6-0.8,1-0.9,1.2c0.3-0.2,0.6-0.6,1.2-1
		c0.5-0.4,1.1-0.9,1.8-1.5c0.7-0.5,1.4-1.1,2.1-1.7c0.7-0.6,1.5-1.1,2.1-1.6c0.7-0.5,1.3-0.9,1.9-1.2c0.6-0.3,1-0.4,1.3-0.4
		c0.4,0,0.9,0.2,1.3,0.6c0.4,0.4,0.6,0.8,0.6,1.3c0,0.3-0.1,0.8-0.4,1.5c-0.3,0.7-0.6,1.4-0.9,2.2c-0.4,0.8-0.7,1.7-1.1,2.5
		c-0.4,0.9-0.7,1.7-1,2.4c-0.3,0.7-0.5,1.3-0.6,1.7c-0.1,0.5-0.1,0.7,0.2,0.7c0.3,0,0.6-0.2,1.2-0.5c0.5-0.3,1.1-0.8,1.8-1.3
		c0.7-0.5,1.4-1.1,2.1-1.7c0.8-0.6,1.5-1.3,2.2-2c0.7-0.7,1.4-1.3,2.1-1.9s1.2-1.1,1.7-1.6c0.1-0.1,0.2-0.1,0.4-0.1
		c0.3,0,0.6,0.1,0.9,0.4c0.3,0.3,0.5,0.6,0.5,1c0,0.2-0.3,0.6-0.8,1.2c-0.5,0.6-1.2,1.2-2.1,2c-0.8,0.7-1.8,1.5-2.8,2.3
		c-1,0.8-2,1.5-3,2.1c-1,0.6-1.9,1.2-2.7,1.6c-0.8,0.4-1.4,0.6-1.8,0.6c-0.6,0-1.2-0.2-1.7-0.7c-0.5-0.5-0.8-1-0.8-1.6
		c0-0.4,0.1-1,0.4-1.8c0.3-0.8,0.6-1.7,1-2.6c0.4-1,0.8-1.9,1.3-2.9c0.4-1,0.8-1.8,1.1-2.4c-1.1,0.8-2.3,1.6-3.6,2.6
		c-1.3,1-2.6,2-3.9,3.1c-1.3,1.1-2.5,2.2-3.7,3.4c-1.2,1.2-2.2,2.4-3,3.5l-0.6,0.1C181.3,185.3,180.7,184.8,180.4,184z"/>
</g>
<path id="XMLID_26_" class="st2" d="M0,253"/>
</svg>
